<?xml version="1.0" encoding="utf-8"?>
<!-- Generator: Adobe Illustrator 21.1.0, SVG Export Plug-In . SVG Version: 6.00 Build 0)  -->
<svg version="1.0" id="Layer_1" xmlns="http://www.w3.org/2000/svg" xmlns:xlink="http://www.w3.org/1999/xlink" x="0px" y="0px"
	 viewBox="0 0 304.067 314.665" enable-background="new 0 0 304.067 314.665" xml:space="preserve">
<g>
	<g>
		<circle fill="#3A4042" cx="179.387" cy="178.927" r="117.646"/>
		<g>
			<path fill="#3A4042" d="M25.633,163.952c-13.357-3.264-21.176-15.696-17.826-29.376c2.015-8.234,7.876-14.496,15.263-16.882
				l2.996,10.215c-3.992,1.155-7.019,4.539-8.145,9.144c-1.968,8.038,2.144,14.543,10.25,16.527
				c8.105,1.981,14.756-1.89,16.721-9.928c1.128-4.604,0.021-9.068-3.004-11.868l7.375-7.681c5.469,5.462,7.776,13.724,5.745,22.026
				C51.661,159.809,38.99,167.222,25.633,163.952z"/>
			<path fill="#3A4042" d="M45.336,117.859c-8.493-5.17-10.956-15.888-5.853-24.268c5.101-8.38,15.753-11.117,24.247-5.944
				c8.494,5.168,10.956,15.886,5.853,24.268C64.483,120.292,53.831,123.029,45.336,117.859z M58.526,96.198
				c-4.05-2.466-8.464-1.244-10.72,2.461c-2.257,3.705-1.313,8.184,2.736,10.651c4.049,2.464,8.462,1.244,10.718-2.461
				C63.516,103.141,62.571,98.662,58.526,96.198z"/>
			<path fill="#3A4042" d="M45.453,61.097l6.822-7.332l35.673,33.211l-6.826,7.329L45.453,61.097z"/>
			<path fill="#3A4042" d="M60.974,45.548l7.676-6.427l31.279,37.349l-7.678,6.424L60.974,45.548z"/>
			<path fill="#3A4042" d="M117.924,27.065l15.698,29.446l-8.833,4.711l-1.476-2.769c-0.751,3.275-2.915,6.169-6.86,8.273
				c-7.717,4.114-17.69,0.733-22.367-8.046c-4.677-8.773-1.929-18.939,5.788-23.053c3.945-2.101,7.553-2.287,10.69-1.085
				l-1.476-2.769L117.924,27.065z M116.941,46.499c-2.357-4.419-6.779-5.616-10.843-3.452c-4.062,2.169-5.533,6.505-3.178,10.924
				c2.357,4.417,6.776,5.613,10.841,3.449C117.822,55.254,119.293,50.916,116.941,46.499z"/>
			<path fill="#3A4042" d="M169.716,31.781c1.914,9.761-3.687,18.678-12.267,20.357c-4.391,0.86-7.895-0.018-10.541-2.083l0.6,3.077
				l-9.824,1.924L128.71,9.203l9.824-1.924l3.168,16.183c1.674-2.915,4.589-5.048,8.977-5.908
				C159.261,15.875,167.808,22.025,169.716,31.781z M159.892,33.705c-0.962-4.912-4.839-7.35-9.357-6.466
				c-4.518,0.886-7.193,4.607-6.231,9.516c0.962,4.915,4.839,7.352,9.36,6.466C158.182,42.338,160.852,38.618,159.892,33.705z"/>
			<path fill="#3A4042" d="M180.375,49.325l-4.263-4.544l0.751-23.481l4.544-4.26l6.403,0.203l4.263,4.542l-0.183,5.671
				l-2.602-0.081l0.154-4.803l-2.904-3.1l-4.005-0.128l-3.097,2.907l-0.694,21.747l2.904,3.097l4.002,0.128l3.1-2.904l0.151-4.805
				l2.602,0.086l-0.18,5.668l-4.544,4.263L180.375,49.325z"/>
			<path fill="#3A4042" d="M200.062,50.986l-3.499-5.157l4.414-23.074l5.154-3.499l7.209,1.379l3.499,5.154l-4.411,23.077
				l-5.157,3.499L200.062,50.986z M201.665,48.984l4.852,0.928l3.517-2.386l4.088-21.371l-2.386-3.517l-4.852-0.926l-3.515,2.386
				l-4.091,21.369L201.665,48.984z"/>
			<path fill="#3A4042" d="M220.401,55.976l-2.612-5.652l8.114-22.049l5.658-2.612l4.698,1.729l2.493,5.397l6.2-16.848l2.446,0.899
				l-15.909,43.22l-2.253-0.829l1.351-4.057l-5.486,2.534L220.401,55.976z M222.312,54.266l2.818,1.035l6.427-2.97l6.132-16.663
				l-2.967-6.424l-2.818-1.038l-3.856,1.781l-7.517,20.42L222.312,54.266z"/>
			<path fill="#3A4042" d="M240.388,64.58l-1.674-6.004l11.55-20.459l6.002-1.671l6.161,3.475l1.671,6.002l-6.002,10.638
				l-11.568-6.529L241.41,59.1l1.139,4.093l4.067,2.297l4.093-1.139l1.968-3.488l2.266,1.278l-2.393,4.245l-6.002,1.671
				L240.388,64.58z M247.641,48.058l9.303,5.248l4.458-7.908l-1.137-4.091l-4.073-2.297l-4.088,1.139L247.641,48.058z"/>
		</g>
		<g>
			<path fill="#FFFCEE" d="M278.1,165.295c-32.16,0-46.478,37.392-46.918,38.558c-1.033,3.187-8.118,25.805-8.118,43.89
				c0,34.179-28.35,53.956-62.742,53.956c-34.677,0-62.771-20.075-62.771-54.738c0,0,0-19.151,2.332-36.156
				c-5.531-6.256-6.341-16.279-6.341-16.279s-2.33,0.455-4.462,2.231c-0.264,0.22-0.667,0.008-0.627-0.333
				c0.63-5.349,6.047-16.699,16.776-18.333c1.877-7.592,5.431-15.625,6.241-17.146c10.877-20.274,32.26-34.051,56.871-34.051
				c9.028,0,17.616,1.848,25.421,5.204c21.696,0,32.175-11.516,32.175-11.516c4.871,0,10.743,12.746,8.023,17.494
				c-0.067,0.117,0.081,0.252,0.195,0.18c9.038-5.758,14.133-19.964,14.133-19.964c10.322,5.161,15.739,28.35,10.194,33.895
				C276.294,154.93,281.086,165.295,278.1,165.295z"/>
		</g>
		<g>
			<path fill="#EAE6DA" d="M158.766,301.671c-33.96-0.587-61.219-20.558-61.219-54.704c0,0-0.285-4.901,0.516-16.435
				C133.573,224.951,116.119,275.842,158.766,301.671z"/>
		</g>
		<g>
			<path fill="#F25A70" d="M278.926,164.385c0,0.569-0.284,0.91-0.825,0.91c-0.512,0-1.009,0.014-1.521,0.028
				c-28.535,0.953-41.189,28.606-43.335,33.866c-0.014,0.028-0.028,0.057-0.043,0.085c-1.166,2.403-1.82,4.066-1.991,4.493
				c0.967-4.265,1.621-8.36,1.621-12.398c0-13.293-4.024-25.649-10.919-35.914c-6.896-10.251-16.649-18.426-28.137-23.36
				c0.555,0,1.109-0.014,1.664-0.028c0.341,0,0.682-0.014,1.024-0.043c0.355,0,0.711-0.028,1.066-0.043
				c0.54-0.043,1.052-0.085,1.564-0.128c0.313-0.028,0.626-0.057,0.938-0.1c2.104-0.213,4.08-0.555,5.929-0.967
				c0.327-0.085,0.654-0.156,0.967-0.242c0.341-0.071,0.683-0.156,1.024-0.256c0.384-0.1,0.768-0.199,1.137-0.313
				c0.597-0.185,1.194-0.37,1.763-0.555c0.455-0.156,0.91-0.313,1.336-0.483c0.441-0.156,0.881-0.313,1.294-0.498
				c0.427-0.156,0.825-0.327,1.223-0.512c0.782-0.341,1.535-0.697,2.246-1.052c0.896-0.455,1.72-0.91,2.488-1.365
				c1.265-0.739,2.332-1.464,3.213-2.118c1.066-0.796,1.877-1.479,2.417-1.976c0.014-0.014,0.014-0.014,0.028-0.028
				c0.54-0.455,1.322-0.441,1.863,0.014c2.687,2.332,9.64,9.241,7.038,16.578c-0.014,0.028-0.028,0.057-0.043,0.085
				c-0.028,0.071,0,0.128,0.043,0.156c0.043,0.043,0.114,0.071,0.171,0.028c0.27-0.171,0.526-0.341,0.796-0.54
				c0.597-0.427,1.194-0.881,1.749-1.379c0.213-0.185,0.427-0.384,0.64-0.583c0.341-0.313,0.682-0.654,1.009-0.995
				c0.156-0.156,0.313-0.313,0.455-0.483c0.028-0.028,0.057-0.057,0.085-0.085c0.1-0.1,0.185-0.199,0.27-0.299
				c0.1-0.114,0.199-0.213,0.284-0.313c0.028-0.028,0.043-0.057,0.057-0.071c0.156-0.171,0.299-0.341,0.426-0.512
				c0.085-0.1,0.171-0.185,0.242-0.284c0.256-0.313,0.512-0.64,0.754-0.953c0.142-0.185,0.284-0.37,0.412-0.555
				c0.043-0.043,0.071-0.085,0.085-0.128c0,0,0.028-0.014,0.028-0.028c0.142-0.185,0.284-0.37,0.398-0.555
				c0.156-0.213,0.313-0.427,0.441-0.64c0.071-0.071,0.114-0.156,0.156-0.228c0.057-0.071,0.1-0.142,0.142-0.213
				c0.114-0.156,0.213-0.313,0.313-0.469c0.213-0.327,0.427-0.668,0.626-0.995c0.014-0.014,0.028-0.028,0.028-0.043
				c0.213-0.327,0.398-0.654,0.583-0.981c0.043-0.057,0.071-0.114,0.1-0.171c0.284-0.469,0.54-0.938,0.782-1.393
				c0.1-0.171,0.185-0.327,0.27-0.483c0.171-0.313,0.327-0.64,0.483-0.938c0.128-0.242,0.242-0.483,0.37-0.711
				c0-0.014,0-0.028,0.014-0.043c0.014-0.057,0.043-0.114,0.071-0.156c0.156-0.299,0.299-0.597,0.427-0.881
				c0.1-0.213,0.199-0.427,0.284-0.626c0.057-0.114,0.1-0.213,0.142-0.313c0.028-0.057,0.057-0.114,0.085-0.171
				c0.1-0.242,0.199-0.455,0.284-0.668c0.028-0.071,0.057-0.128,0.1-0.199c0.498-0.796,1.621-0.91,2.261-0.171
				c2.118,2.431,5.986,7.208,8.744,12.611c0.071,0.171,0.114,0.341,0.185,0.512c2.445,7.507,2.744,15.511,0,18.767
				c-0.085,0.1-0.171,0.199-0.27,0.299c1.109,0.171,2.175,0.37,3.185,0.597c0.427,0.099,0.839,0.199,1.251,0.299
				c0.213,0.057,0.427,0.114,0.626,0.171c0.398,0.1,0.782,0.213,1.152,0.327c4.763,1.436,8.204,3.441,10.507,5.388
				c0.199,0.171,0.384,0.341,0.569,0.512c0.028,0.014,0.057,0.028,0.071,0.057c0.185,0.171,0.355,0.341,0.526,0.512
				c0.171,0.171,0.341,0.341,0.498,0.526c0.156,0.171,0.313,0.341,0.441,0.512c0.242,0.284,0.455,0.569,0.64,0.839
				c0.555,0.839,0.867,1.578,0.953,2.147C278.912,164.186,278.926,164.285,278.926,164.385z"/>
		</g>
		<path fill="#828282" d="M107.875,177.899c-12.485,0-18.759,12.757-19.427,18.53c-0.04,0.346,0.359,0.554,0.627,0.332
			c2.14-1.774,4.472-2.241,4.472-2.241s1.719,21.207,17.194,21.207C129.654,215.727,127.935,177.899,107.875,177.899z"/>
		<g>
			<path fill="#F4F1E4" d="M171.771,274.333c9.332,1.628,26.948,3.007,31.82-1.865c3.152-3.152-7.197-17.214-16.908-26.634
				c-2.434-2.487-6.872-4.316-11.176-4.316c-9.182,0-16.621,7.439-16.621,16.621C158.885,266.336,163.97,272.969,171.771,274.333z"
				/>
		</g>
		<path fill="#3A4042" d="M267.011,148.353c2.157-8.621-2.251-19.834-12.898-32.092c-1.35-1.555-3.303-2.446-5.358-2.446
			c-2.843,0-5.406,1.688-6.529,4.301c-0.613,1.425-2.097,4.66-4.231,7.924c-2.158-4.076-5.352-7.227-7.325-8.933
			c-1.296-1.121-2.95-1.738-4.658-1.738c-1.77,0-3.465,0.657-4.774,1.851c-2.309,2.105-10.919,8.863-26.36,9.177
			c-8.416-3.446-17.338-5.192-26.539-5.192c-25.91,0-49.622,14.197-61.882,37.05c-0.783,1.469-3.738,8.054-5.838,15.126
			c-10.761,3.644-16.944,14.98-17.816,22.374c-0.203,1.719,0.339,3.445,1.488,4.736c1.153,1.297,2.809,2.04,4.544,2.04
			c0.166,0,0.331-0.007,0.496-0.02c0.899,3.092,2.333,6.69,4.603,9.92c-2.047,16.508-2.072,33.769-2.072,34.53
			c0,18.264,7.073,33.741,20.454,44.758c12.271,10.103,29.319,15.667,48.004,15.667c40.29,0,68.43-24.526,68.43-59.643
			c0-17.161,6.809-38.933,7.797-41.998c1.005-2.599,14.013-34.763,41.553-34.763c3.437,0,6.228-2.598,6.492-6.044
			C285.03,159.219,278.546,152.053,267.011,148.353z M203.255,285.883c-10.904,8.824-26.153,13.683-42.937,13.683
			c-41.881,0-60.627-26.419-60.627-52.603c0-0.175,0.025-16.358,1.82-31.942c2.503,1.74,5.541,2.837,9.23,2.837
			c4.872,0,8.922-2.153,11.714-6.225c2.355-3.436,3.652-8.109,3.652-13.158c0-10.948-6.324-22.568-18.038-22.698
			c1.892-6.448,4.618-12.572,5.285-13.826c10.896-20.309,31.967-32.926,54.991-32.926c8.544,0,16.814,1.693,24.58,5.03
			c11.051,4.746,20.46,12.558,27.208,22.589c6.906,10.282,10.556,22.289,10.556,34.725c0,6.642-1.846,13.428-3.983,21.284
			c-2.703,9.934-5.766,21.193-5.766,35.09C220.94,263.333,214.825,276.521,203.255,285.883z M116.46,198.438
			c-11.491-10.054-21.926-6.592-23.561-5.956c-0.264,0.064-0.715,0.186-1.297,0.402c2.073-5.336,7.237-12.852,16.273-12.852
			c9.169,0,13.966,9.279,13.966,18.445c0,4.197-1.032,8.013-2.905,10.746c-1.988,2.901-4.745,4.372-8.195,4.372
			c-5.472,0-9.648-3.111-12.412-9.248c-1.436-3.187-2.122-6.419-2.431-8.316c2.966-0.677,9.944-1.216,17.754,5.618
			c0.405,0.354,0.905,0.528,1.404,0.528c0.594,0,1.184-0.246,1.606-0.728C117.436,200.561,117.347,199.213,116.46,198.438z
			 M225.069,121.424c0.268-0.245,0.605-0.366,0.942-0.366c0.333,0,0.667,0.118,0.938,0.352c2.374,2.053,8.052,7.665,7.582,13.991
			c-2.374,1.87-5.058,3.11-8.015,3.11c-1.178,0-2.133,0.955-2.133,2.133c0,1.178,0.955,2.133,2.133,2.133
			c12.305,0,20.133-15.172,22.788-21.288c4.479,3.675,7.77,11.507,8.851,18.167c0.727,4.481,0.466,8.339-0.64,10.288
			c-2.436-0.336-5.097-0.543-8.073-0.543c-1.178,0-2.133,0.955-2.133,2.133c0,1.178,0.955,2.133,2.133,2.133
			c16.484,0,22.952,6.094,25.309,9.609c-21.374,1.531-33.939,17.601-39.805,27.76c-0.065-13.166-3.957-25.874-11.276-36.77
			c-6.434-9.564-15.144-17.222-25.335-22.365C213.595,130.708,222.412,123.846,225.069,121.424z"/>
		<circle fill="#3A4042" cx="148.311" cy="202.178" r="10.574"/>
		<g>
			<path fill="#3A4042" d="M188.725,277.998c-7.959,0-15.832-1.304-17.321-1.563h-0.001c-8.763-1.532-14.651-8.885-14.651-18.294
				c0-10.341,8.413-18.754,18.754-18.754c4.769,0,9.754,1.946,12.701,4.957c6.946,6.737,18.044,19.912,18.094,26.418
				c0.012,1.653-0.646,2.662-1.202,3.216C201.973,277.103,195.319,277.998,188.725,277.998z M172.137,272.233
				c12,2.094,26.483,2.19,29.946-1.272c0.714-2.038-6.15-13.181-16.885-23.596c-2.157-2.203-6.127-3.714-9.692-3.714
				c-7.989,0-14.488,6.5-14.488,14.489C161.018,265.406,165.486,271.068,172.137,272.233L172.137,272.233z"/>
		</g>
	</g>
	<path fill="#3A4042" d="M41.89,131.785c3.024,2.8,4.131,7.264,3.003,11.868c-1.966,8.038-8.617,11.91-16.721,9.928
		c-8.106-1.984-12.219-8.489-10.25-16.527c1.126-4.604,4.153-7.989,8.145-9.144l-2.996-10.215
		c-7.386,2.386-13.247,8.648-15.263,16.882c-3.35,13.68,4.469,26.111,17.826,29.376c13.357,3.269,26.028-4.143,29.376-17.823
		c2.031-8.301-0.276-16.564-5.745-22.026L41.89,131.785z"/>
</g>
</svg>