<svg width="228" height="200" viewBox="0 0 228 200" fill="none" xmlns="http://www.w3.org/2000/svg">
<path d="M212.05 17.23C212.05 17.23 209.38 37.43 195.19 49.06C181 60.69 160.68 59.35 160.68 59.35C160.68 59.35 163.35 39.15 177.53 27.52C191.71 15.89 212.05 17.23 212.05 17.23Z" fill="#171730"/>
<path d="M227.26 54.09C227.26 54.09 215.97 71.09 198.11 75.24C180.25 79.39 162.59 69.24 162.59 69.24C162.59 69.24 173.88 52.24 191.74 48.09C209.6 43.94 227.26 54.09 227.26 54.09Z" fill="#171730"/>
<path d="M101.94 7.79999C154.18 7.79999 196.54 46.99 196.54 95.29C196.54 143.59 154.18 182.79 101.94 182.79C49.7 182.79 7.34 143.62 7.34 95.29C7.34 46.96 49.7 7.79999 101.94 7.79999Z" fill="#332C2B"/>
<path d="M26.46 139.56C34.0551 153.659 45.5544 165.27 59.58 173L61.04 173.76L62.48 174.5C67.2105 176.848 72.1568 178.733 77.25 180.13C82.356 181.521 87.583 182.422 92.86 182.82C97.4625 183.153 102.085 183.109 106.68 182.69C111.24 182.267 115.756 181.46 120.18 180.28L123.35 179.37C129.247 177.525 134.919 175.026 140.26 171.92C151.995 165.096 161.886 155.509 169.073 143.993C176.26 132.477 180.526 119.38 181.5 105.84C181.805 101.649 181.805 97.4411 181.5 93.25C181.182 89.0902 180.56 84.9592 179.64 80.89L178.96 77.89L181.1 75.6C181.606 75.0468 182.077 74.4623 182.51 73.85C182.945 73.2389 183.33 72.5935 183.66 71.92L194.47 72.92C197.507 84.0016 198.623 95.5215 197.77 106.98C196.769 120.697 192.945 134.06 186.536 146.23C180.128 158.399 171.274 169.113 160.53 177.7C141.097 193.267 116.487 200.89 91.6569 199.034C66.8272 197.179 43.6233 185.982 26.72 167.7C17.384 157.618 10.226 145.721 5.69237 132.75C1.15878 119.779 -0.653028 106.012 0.369993 92.31C0.731994 87.7437 1.40016 83.2068 2.36999 78.73C3.32543 74.2757 4.58505 69.8921 6.13999 65.61L9.70999 55.73L16.12 64L16.56 64.53L17.19 65.23L22.7 67.41L20.9 72.63C19.76 75.9878 18.8348 79.4147 18.13 82.89C17.4083 86.3877 16.9139 89.9284 16.65 93.49C15.4334 109.47 18.8387 125.462 26.46 139.56ZM130.16 22.36C113.897 15.767 95.9557 14.527 78.94 18.82C70.3442 21.0211 62.1569 24.5864 54.69 29.38V29.38C54.16 29.72 53.61 30.08 53.06 30.46L51.43 31.58C49.76 32.78 48.15 34.01 46.63 35.28C45.11 36.55 43.54 37.92 42.12 39.28L39.45 41.84L22.87 35.52L29.13 29.23C30.36 27.99 31.75 26.67 33.28 25.32C34.81 23.97 36.22 22.74 37.61 21.62C57.0429 6.05338 81.6533 -1.57004 106.483 0.285552C131.313 2.14115 154.517 13.3379 171.42 31.62C172.48 32.74 173.52 33.93 174.54 35.14C175.56 36.35 176.46 37.48 177.48 38.78L183 46L165.54 49.91L163.28 47.1C162.05 45.58 160.72 44.03 159.28 42.51C157.84 40.99 156.51 39.65 155.01 38.26L153.57 36.97L152.09 35.68C145.519 30.1243 138.119 25.63 130.16 22.36V22.36Z" fill="#171730"/>
<path d="M105.7 10.76C154.41 14.38 190.95 57.12 187.32 106.21C183.69 155.3 141.19 192.21 92.48 188.54C43.77 184.87 7.21 142.18 10.87 93.09C14.53 44 57 7.11998 105.7 10.76Z" fill="white"/>
<path d="M105.7 10.76C154.41 14.38 190.95 57.12 187.32 106.21C183.69 155.3 141.19 192.21 92.48 188.54C43.77 184.87 7.21 142.18 10.87 93.09C14.53 44 57 7.11998 105.7 10.76Z" fill="white"/>
<path d="M105.7 10.76C154.41 14.38 190.95 57.12 187.32 106.21C185.672 128.682 175.597 149.701 159.11 165.06C185.35 120.62 187.27 52.4 127.94 29.26C125.676 28.3131 123.359 27.4984 121 26.82V26.82C90.77 17.39 55.11 21 33 40.43C41.997 30.1979 53.2454 22.1928 65.8604 17.0444C78.4754 11.8961 92.1128 9.74486 105.7 10.76V10.76Z" fill="#A8CBE0"/>
<path d="M155.79 31.16C156.87 32.07 157.93 33 158.94 33.95C131.94 38.42 110.74 57.02 105.05 80.25L102.28 78.75C107.42 55.07 128.58 35.94 155.79 31.16ZM48.05 26.91C49.19 26.08 50.37 25.28 51.56 24.52C75.45 32.87 92.46 52.52 95.29 74.92L92.4 76.19C89 54.14 71.87 34.93 48.05 26.91Z" fill="#171730"/>
<path d="M98.26 73.61L171.78 54L174.64 62.06C179.081 74.3159 180.788 87.3949 179.64 100.38C176.64 131.3 159.75 156.92 130.64 168.71C105.92 178.71 76.34 176.62 53.7 162.38C27.59 146 17.13 118.08 20 88.1C21.1203 74.9708 24.8606 62.1993 31 50.54L35.26 42.76L43.26 46.67C61.5733 55.6567 79.9066 64.6367 98.26 73.61Z" fill="#171730"/>
<path d="M165.9 65.16C169.899 76.1385 171.438 87.8612 170.41 99.5C161.35 193.5 19.93 184.92 29.26 89.01C30.2541 77.1231 33.6276 65.5573 39.18 55C67.68 69 97.28 83.48 97.28 83.48L165.9 65.16Z" fill="#171730"/>
<path d="M98.6 65.8L174.85 48.74C181.03 47.09 190.74 66.88 178.79 76.4L96.37 95.76L17.72 64.42C7.30999 53.23 19.86 35.1 25.72 37.66L98.6 65.8Z" fill="#61CE70"/>
<path d="M157.37 119.55C154.37 97.75 127.37 90.19 98.78 90.15C70.19 90.11 43.15 97.75 40.2 119.55C38.2 134.23 48.2 157.49 86.77 148.55C94.6664 146.709 102.883 146.729 110.77 148.61C149.43 157.86 159.36 134.24 157.37 119.55Z" fill="white"/>
<path d="M79.81 123.77C79.81 118.21 77.89 113.9 73.35 112.02C72.0603 111.495 70.6792 111.232 69.287 111.246C67.8947 111.26 66.5191 111.55 65.24 112.1C60.7 114.04 58.62 118.17 58.62 123.77V124C58.62 129.56 60.54 133.86 65.07 135.75C66.3604 136.272 67.7412 136.533 69.133 136.52C70.5248 136.506 71.9002 136.217 73.18 135.67C77.73 133.73 79.81 129.59 79.81 124C79.81 124 79.81 123.94 79.81 123.9C79.81 123.86 79.81 123.8 79.81 123.77Z" fill="#050506"/>
<path d="M117.76 123.77C117.76 118.21 119.68 113.9 124.22 112.02C125.51 111.495 126.891 111.232 128.283 111.246C129.675 111.26 131.051 111.55 132.33 112.1C136.87 114.04 138.95 118.17 138.95 123.77V124C138.95 129.56 137.03 133.86 132.5 135.75C131.21 136.272 129.829 136.533 128.437 136.52C127.045 136.506 125.67 136.217 124.39 135.67C119.84 133.73 117.76 129.59 117.76 124V123.81V123.77Z" fill="#050506"/>
<path d="M33 40.47L88.06 61.74L92.54 63.45L98.6 65.8L108 63.7L112.89 62.6L160 52.07L172.15 49.34L174.81 48.74C180 47.35 187.72 61.08 183 71.17C182.022 73.2113 180.589 75.0007 178.81 76.4L173.2 77.71L169.43 78.6L96.43 95.76L32.73 70.39L17.83 64.39H17.72C15.7316 62.2657 14.4163 59.6005 13.94 56.73C12.24 46.53 21.07 35.59 25.72 37.63L26.32 37.86L33 40.47ZM31 77L95.85 102.83L96.26 102.75L170.3 85.33L174.77 84.33L181.77 82.66L182.96 81.73C183.781 81.066 184.559 80.3513 185.29 79.59C187.487 77.2647 189.128 74.4713 190.09 71.42C191.55 66.5708 191.55 61.3992 190.09 56.55C188.21 49.99 182.75 41.42 175.09 41.93C174.462 41.966 173.839 42.0631 173.23 42.22L167.75 43.45L154.8 46.35L119.63 54.2L113.43 55.6L99.08 58.79L88.48 54.71L82.73 52.49L39.22 35.62L38.08 35.18L31.2 32.51L28.28 31.39C20.09 27.97 12.56 36.39 9.48999 43.07C6.12999 50.44 6.01999 58.75 10.15 65.5C10.9046 66.751 11.7822 67.9235 12.77 69L13.77 70.13L15.36 70.74L31 77Z" fill="#171730"/>
<path d="M56.81 178C41.8106 169.749 29.503 157.355 21.3568 142.299C13.2106 127.242 9.57008 110.16 10.87 93.09C11.4306 85.4819 12.9527 77.9755 15.4 70.75L13.81 70.14L12.81 69.01C12.39 68.55 11.97 68.01 11.59 67.55C5.69417 83.8298 4.38637 101.417 7.8095 118.39C11.2326 135.363 19.255 151.068 31 163.79C46.9222 180.978 68.7624 191.5 92.1276 193.238C115.493 194.977 138.65 187.803 156.94 173.16C171.314 161.617 181.998 146.122 187.675 128.582C193.352 111.043 193.774 92.2263 188.89 74.45C187.964 76.3154 186.768 78.034 185.34 79.55C187.325 88.2883 187.999 97.2733 187.34 106.21C185.692 128.682 175.617 149.701 159.13 165.06C149.428 174.126 137.807 180.888 125.13 184.84C124 185.2 122.88 185.52 121.74 185.84C101.084 191.323 79.1402 189.127 59.98 179.66C58.88 179.13 57.84 178.58 56.81 178ZM105.7 10.76C124.131 12.1037 141.664 19.2445 155.79 31.16C156.87 32.07 157.93 33 158.94 33.95C162.118 36.8816 165.076 40.0435 167.79 43.41L172.88 42.27C171.09 39.94 169.18 37.68 167.17 35.52C158.649 26.3621 148.367 19.019 136.94 13.9307C125.512 8.84239 113.175 6.11375 100.668 5.90832C88.1611 5.70288 75.7412 8.02488 64.153 12.7351C52.5649 17.4454 42.047 24.4469 33.23 33.32L38.06 35.18C41.1841 32.1796 44.5266 29.4154 48.06 26.91C49.2 26.08 50.38 25.28 51.57 24.52C67.6299 14.1529 86.6389 9.32072 105.7 10.76V10.76Z" fill="#171730"/>
<path d="M164.15 51.13L174.85 48.74C181.03 47.09 190.74 66.88 178.79 76.4L96.37 95.76L17.72 64.42C16.1726 62.7544 15.0224 60.76 14.3556 58.5866C13.6888 56.4131 13.5228 54.1168 13.87 51.87L97.64 86.87L167.53 70.2L167.28 63C167.15 59.41 165.63 54.82 164.15 51.13Z" fill="#39B54A"/>
</svg>
