<?xml version="1.0" encoding="iso-8859-1"?>
<!-- Generator: Adobe Illustrator 19.0.0, SVG Export Plug-In . SVG Version: 6.00 Build 0)  -->
<svg version="1.1" id="Layer_1" xmlns="http://www.w3.org/2000/svg" xmlns:xlink="http://www.w3.org/1999/xlink" x="0px" y="0px"
	 viewBox="0 0 504.4 504.4" style="enable-background:new 0 0 504.4 504.4;" xml:space="preserve">
<g>
	<g>
		<path d="M377.6,0.2H126.4C56.8,0.2,0,57,0,126.6v251.6c0,69.2,56.8,126,126.4,126H378c69.6,0,126.4-56.8,126.4-126.4V126.6
			C504,57,447.2,0.2,377.6,0.2z M377.2,189c0,2.8,0,5.6,0,8.4c0,84-64.8,180.8-183.6,180.8c-36.4,0-70.4-10.4-98.8-28.4
			c5.2,0.4,10,0.8,15.2,0.8c30.4,0,58-10,80-27.2c-28.4-0.4-52-18.8-60.4-44c4,0.8,8,1.2,12,1.2c6,0,12-0.8,17.2-2.4
			c-28.8-6-50.8-31.6-50.8-62.4V215c8,4.8,18.4,7.6,28.8,8c-17.2-11.2-28.8-30.8-28.8-52.8c0-11.6,3.2-22.4,8.8-32
			c32,38.4,79.2,63.6,132.8,66.4c-1.2-4.8-1.6-9.6-1.6-14.4c0-35.2,28.8-63.6,64.4-63.6c18.4,0,35.2,7.6,47.2,20
			c14.8-2.8,28.4-8,40.8-15.6c-4.8,14.8-15.2,27.2-28.4,35.2c13.2-1.6,25.6-4.8,37.2-10C400.4,169,389.6,180.2,377.2,189z"/>
	</g>
</g>
<g>
</g>
<g>
</g>
<g>
</g>
<g>
</g>
<g>
</g>
<g>
</g>
<g>
</g>
<g>
</g>
<g>
</g>
<g>
</g>
<g>
</g>
<g>
</g>
<g>
</g>
<g>
</g>
<g>
</g>
</svg>
